<svg
	xmlns="http://www.w3.org/2000/svg"
	xmlns:xlink="http://www.w3.org/1999/xlink"
	aria-hidden="true"
	focusable="false"
	role="img"
	width="1em"
	height="1em"
	viewBox="0 0 173 173"
>
	<path
		d="M13.6812 92.2339H80.1492V158.702H17.3657C15.3308 158.702 13.6812 157.052 13.6812 155.017V92.2339Z"
		fill="#FF3270"
	/>
	<path
		d="M92.2343 92.2339H155.018C157.053 92.2339 158.702 93.8835 158.702 95.9185V155.017C158.702 157.052 157.053 158.702 155.018 158.702H92.2343V92.2339Z"
		fill="#861FFF"
	/>
	<path
		d="M13.6812 17.3657C13.6812 15.3308 15.3308 13.6812 17.3657 13.6812H76.4646C78.4995 13.6812 80.1492 15.3308 80.1492 17.3657V80.1492H13.6812V17.3657Z"
		fill="url(#paint0_linear)"
	/>
	<path
		d="M92.2343 46.9152C92.2343 28.5605 107.114 13.6812 125.468 13.6812V13.6812C143.823 13.6812 158.702 28.5605 158.702 46.9152V46.9152C158.702 65.2698 143.823 80.1492 125.468 80.1492V80.1492C107.114 80.1492 92.2343 65.2698 92.2343 46.9152V46.9152Z"
		fill="#FFD702"
	/>
	<path
		fill-rule="evenodd"
		clip-rule="evenodd"
		d="M0 17.3658C0 7.77494 7.77494 0 17.3658 0H76.4647C84.486 0 91.2371 5.43839 93.2319 12.8291C101.638 4.87669 112.984 0 125.468 0C151.379 0 172.384 21.0047 172.384 46.9153C172.384 59.3999 167.507 70.7456 159.555 79.1514C166.945 81.1463 172.384 87.8974 172.384 95.9186V155.017C172.384 164.608 164.609 172.383 155.018 172.383H93.8305H78.5531H17.3658C7.77494 172.383 0 164.608 0 155.017V80.1493V78.5527V17.3658ZM27.3625 27.3625V66.468H66.468V27.3625H27.3625ZM27.3625 145.021V105.915H66.468V145.021H27.3625ZM105.916 145.021V105.915H145.021V145.021H105.916ZM105.916 46.9153C105.916 36.1166 114.67 27.3625 125.468 27.3625C136.267 27.3625 145.021 36.1166 145.021 46.9153C145.021 57.714 136.267 66.468 125.468 66.468C114.67 66.468 105.916 57.714 105.916 46.9153Z"
		fill="black"
	/>
	<defs>
		<linearGradient
			id="paint0_linear"
			x1="46.9152"
			y1="13.6812"
			x2="46.9152"
			y2="80.1492"
			gradientUnits="userSpaceOnUse"
		>
			<stop stop-color="#097EFF" />
			<stop offset="1" stop-color="#6AB1FF" />
		</linearGradient>
	</defs>
</svg>